<svg width="72" height="74" viewBox="0 0 72 74" fill="none" xmlns="http://www.w3.org/2000/svg">
<g clip-path="url(#clip0_101_53)">
<mask id="mask0_101_53" style="mask-type:luminance" maskUnits="userSpaceOnUse" x="0" y="0" width="72" height="74">
<path d="M72 0H0V74H72V0Z" fill="white"/>
</mask>
<g mask="url(#mask0_101_53)">
<path d="M66.9203 22.7224C67.4934 23.0572 68.132 23.1365 68.6637 22.9928C69.2106 22.9263 69.7685 22.6107 70.1673 22.085C70.5792 21.542 70.7252 20.9025 70.6184 20.3574C70.0562 20.4111 69.4743 20.7308 69.0625 21.2738C68.7508 21.6837 68.5918 22.1472 68.5787 22.5871C68.3957 22.188 68.0688 21.8189 67.622 21.5571C67.0315 21.2115 66.369 21.1343 65.8286 21.2974C65.9419 21.8425 66.3254 22.3768 66.9182 22.7224H66.9203Z" fill="#DECE93"/>
<path d="M5.07967 22.7224C4.50654 23.0572 3.86805 23.1365 3.33633 22.9928C2.78935 22.9263 2.23149 22.6107 1.8327 22.085C1.42083 21.542 1.27482 20.9025 1.38161 20.3574C1.94383 20.4111 2.52567 20.7308 2.93754 21.2738C3.24916 21.6837 3.40824 22.1472 3.42132 22.5871C3.60437 22.188 3.93125 21.8189 4.37797 21.5571C4.96853 21.2115 5.631 21.1343 6.17144 21.2974C6.05812 21.8425 5.67458 22.3768 5.08185 22.7224H5.07967Z" fill="#DECE93"/>
<path d="M69.5506 24.7782C69.239 25.1882 69.0799 25.6517 69.0668 26.0895C68.8837 25.6903 68.5568 25.3212 68.1102 25.0593C67.5196 24.7139 66.8571 24.6366 66.3167 24.7997C66.43 25.3448 66.8135 25.8791 67.4063 26.2247C67.9794 26.5595 68.6179 26.6388 69.1496 26.4951C69.6966 26.4285 70.2544 26.1131 70.6532 25.5873C71.0651 25.0444 71.2111 24.4048 71.1044 23.8597C70.5421 23.9134 69.9603 24.2331 69.5484 24.7761L69.5506 24.7782Z" fill="#DECE93"/>
<path d="M2.45147 24.7782C2.7631 25.1882 2.92218 25.6517 2.93525 26.0895C3.1183 25.6903 3.44518 25.3212 3.89191 25.0593C4.48247 24.7139 5.14494 24.6366 5.68537 24.7997C5.57206 25.3448 5.18852 25.8791 4.59578 26.2247C4.02266 26.5595 3.38416 26.6388 2.85244 26.4951C2.30547 26.4285 1.7476 26.1131 1.34881 25.5873C0.936942 25.0444 0.790941 24.4048 0.897721 23.8597C1.45995 23.9134 2.04179 24.2331 2.45365 24.7761L2.45147 24.7782Z" fill="#DECE93"/>
<path d="M69.9909 28.1475C69.6617 28.581 69.4918 29.0746 69.4787 29.5404C69.2848 29.1154 68.9361 28.7248 68.4632 28.448C67.8356 28.081 67.1339 27.9995 66.5608 28.1733C66.6807 28.7506 67.0882 29.3192 67.7158 29.6863C68.3238 30.0425 69.0015 30.1262 69.5659 29.9738C70.1456 29.903 70.7383 29.5683 71.1632 29.0102C71.5991 28.4351 71.756 27.7548 71.6426 27.1775C71.0477 27.2355 70.4288 27.5745 69.993 28.1497L69.9909 28.1475Z" fill="#DECE93"/>
<path d="M2.01135 28.1475C2.34041 28.581 2.51038 29.0746 2.52346 29.5404C2.7174 29.1154 3.06607 28.7248 3.53895 28.448C4.16656 28.081 4.86825 27.9995 5.44138 28.1733C5.32152 28.7506 4.91401 29.3192 4.28641 29.6863C3.67842 30.0425 3.0007 30.1262 2.43629 29.9738C1.85663 29.903 1.26389 29.5683 0.838954 29.0102C0.403118 28.4351 0.246218 27.7548 0.359535 27.1775C0.954446 27.2355 1.57334 27.5745 2.00917 28.1497L2.01135 28.1475Z" fill="#DECE93"/>
<path d="M69.4371 33.4011C69.2977 32.944 68.9969 32.4976 68.5546 32.1521C67.9662 31.695 67.2623 31.5169 66.6543 31.6156C66.6979 32.2208 67.0335 32.8539 67.6219 33.311C68.1928 33.7551 68.8705 33.9311 69.4654 33.8518C70.0648 33.8561 70.7163 33.5964 71.224 33.0834C71.7492 32.5555 71.9998 31.886 71.965 31.2808C71.3504 31.2593 70.6749 31.5211 70.1497 32.049C69.7531 32.4482 69.5134 32.9268 69.4349 33.399L69.4371 33.4011Z" fill="#DECE93"/>
<path d="M2.56278 33.4011C2.70225 32.944 3.00297 32.4976 3.44534 32.1521C4.03373 31.695 4.7376 31.5169 5.34559 31.6156C5.30201 32.2208 4.96641 32.8539 4.37803 33.311C3.80709 33.7551 3.12936 33.9311 2.53445 33.8518C1.93518 33.8561 1.28361 33.5964 0.775855 33.0834C0.250673 32.5555 6.78599e-05 31.886 0.0349347 31.2808C0.649462 31.2593 1.32501 31.5211 1.85019 32.049C2.2468 32.4482 2.48651 32.9268 2.56496 33.399L2.56278 33.4011Z" fill="#DECE93"/>
<path d="M70.0932 36.0965C69.6486 36.4463 69.3479 36.8948 69.2084 37.3563C69.1277 36.882 68.8837 36.4012 68.4849 36.0021C67.9554 35.472 67.2754 35.2102 66.6566 35.2338C66.6238 35.8433 66.8788 36.515 67.4084 37.045C67.9226 37.5579 68.5764 37.8177 69.18 37.8112C69.7772 37.8906 70.4592 37.7103 71.0323 37.2618C71.6229 36.8004 71.9585 36.1609 71.9999 35.5535C71.3897 35.457 70.6815 35.6351 70.0909 36.0986L70.0932 36.0965Z" fill="#DECE93"/>
<path d="M1.90898 36.0965C2.35353 36.4463 2.65426 36.8948 2.79372 37.3563C2.87435 36.882 3.11842 36.4012 3.5172 36.0021C4.04675 35.472 4.72665 35.2102 5.34554 35.2338C5.37822 35.8433 5.12326 36.515 4.59372 37.045C4.07943 37.5579 3.42568 37.8177 2.82205 37.8112C2.22496 37.8906 1.54287 37.7103 0.969755 37.2618C0.379194 36.8004 0.0436016 36.1609 0.00219727 35.5535C0.612366 35.457 1.3206 35.6351 1.91115 36.0986L1.90898 36.0965Z" fill="#DECE93"/>
<path d="M69.2347 40.6355C68.6812 40.9423 68.2693 41.3844 68.0339 41.8672C68.0296 41.3307 67.8487 40.7599 67.4826 40.2491C66.9967 39.5753 66.2949 39.1675 65.6107 39.086C65.4647 39.7491 65.6238 40.5345 66.1119 41.2105C66.5848 41.8651 67.2581 42.2643 67.9228 42.363C68.5679 42.554 69.3502 42.4746 70.0605 42.0818C70.7928 41.6763 71.2788 41.0325 71.4335 40.3715C70.7797 40.159 69.9691 40.2319 69.2368 40.6376L69.2347 40.6355Z" fill="#DECE93"/>
<path d="M2.76763 40.6355C3.32114 40.9423 3.73301 41.3844 3.96836 41.8672C3.97273 41.3307 4.15359 40.7599 4.51969 40.2491C5.00566 39.5753 5.70735 39.1675 6.39161 39.086C6.53761 39.7491 6.37853 40.5345 5.8904 41.2105C5.41751 41.8651 4.74415 42.2643 4.0795 42.363C3.43446 42.554 2.65214 42.4746 1.94173 42.0818C1.20953 41.6763 0.723569 41.0325 0.568848 40.3715C1.2226 40.159 2.03325 40.2319 2.76546 40.6376L2.76763 40.6355Z" fill="#DECE93"/>
<path d="M67.3932 45.1443C66.7372 45.3781 66.2099 45.7838 65.8655 46.2644C65.9592 45.6829 65.8699 45.0305 65.5648 44.4124C65.1616 43.5948 64.4752 43.0261 63.7474 42.8158C63.4663 43.509 63.4946 44.391 63.8999 45.2087C64.2922 46.0027 64.9503 46.5563 65.652 46.7816C66.3145 47.1036 67.1796 47.1573 68.0229 46.8589C68.8924 46.5499 69.5374 45.9383 69.8273 45.2473C69.1561 44.8996 68.2627 44.833 67.3954 45.1421L67.3932 45.1443Z" fill="#DECE93"/>
<path d="M4.60675 45.1443C5.26268 45.3781 5.79004 45.7838 6.13434 46.2644C6.04065 45.6829 6.12999 45.0305 6.43508 44.4124C6.83823 43.5948 7.52466 43.0261 8.2525 42.8158C8.53362 43.509 8.5053 44.391 8.09996 45.2087C7.70772 46.0027 7.0496 46.5563 6.34791 46.7816C5.68543 47.1036 4.82031 47.1573 3.97696 46.8589C3.10747 46.5499 2.46243 45.9383 2.17261 45.2473C2.84379 44.8996 3.73726 44.833 4.60457 45.1421L4.60675 45.1443Z" fill="#DECE93"/>
<path d="M65.1835 48.8054C64.5275 49.0394 64.0002 49.4449 63.6558 49.9257C63.7495 49.3441 63.6602 48.6916 63.3551 48.0736C62.9519 47.256 62.2655 46.6872 61.5377 46.4769C61.2566 47.1701 61.2849 48.0521 61.6902 48.8698C62.0824 49.6638 62.7406 50.2175 63.4423 50.4429C64.1047 50.7647 64.9699 50.8184 65.8132 50.5201C66.6827 50.211 67.3277 49.5994 67.6176 48.9084C66.9464 48.5608 66.053 48.4943 65.1856 48.8033L65.1835 48.8054Z" fill="#DECE93"/>
<path d="M6.81646 48.8054C7.47239 49.0394 7.99976 49.4449 8.34406 49.9257C8.25036 49.3441 8.33971 48.6916 8.64479 48.0736C9.04797 47.256 9.7344 46.6872 10.4622 46.4769C10.7433 47.1701 10.715 48.0521 10.3097 48.8698C9.91746 49.6638 9.25929 50.2175 8.55762 50.4429C7.89516 50.7647 7.03003 50.8184 6.18668 50.5201C5.31719 50.211 4.67215 49.5994 4.38232 48.9084C5.05351 48.5608 5.94697 48.4943 6.81429 48.8033L6.81646 48.8054Z" fill="#DECE93"/>
<path d="M62.8909 52.6683C62.211 52.8185 61.6356 53.1554 61.2325 53.5911C61.4003 53.0267 61.3938 52.3657 61.1715 51.7155C60.8751 50.8527 60.2672 50.2068 59.572 49.9063C59.2038 50.5588 59.121 51.4364 59.4173 52.2992C59.705 53.1361 60.2868 53.7671 60.9558 54.0782C61.5725 54.4795 62.4223 54.6405 63.2984 54.4473C64.2006 54.2478 64.9175 53.722 65.2945 53.0717C64.6735 52.6425 63.7953 52.4687 62.8953 52.6662L62.8909 52.6683Z" fill="#DECE93"/>
<path d="M9.11116 52.6683C9.79102 52.8185 10.3664 53.1554 10.7695 53.5911C10.6017 53.0267 10.6082 52.3657 10.8305 51.7155C11.1269 50.8527 11.7348 50.2068 12.43 49.9063C12.7983 50.5588 12.8812 51.4364 12.5848 52.2992C12.2971 53.1361 11.7153 53.7671 11.0462 54.0782C10.4296 54.4795 9.5797 54.6405 8.70365 54.4473C7.80147 54.2478 7.08452 53.722 6.70752 53.0717C7.32858 52.6425 8.20679 52.4687 9.10675 52.6662L9.11116 52.6683Z" fill="#DECE93"/>
<path d="M59.9841 55.9861C59.2911 56.0612 58.681 56.3316 58.2299 56.72C58.4608 56.1771 58.5306 55.5204 58.3824 54.8486C58.1862 53.9602 57.6568 53.2499 56.9986 52.8743C56.5584 53.4838 56.3753 54.3465 56.5715 55.2349C56.7611 56.0977 57.2689 56.7887 57.8986 57.1707C58.4652 57.6385 59.2933 57.8918 60.1846 57.7952C61.1042 57.6965 61.8756 57.2522 62.3245 56.6492C61.7557 56.1534 60.9037 55.883 59.9862 55.9818L59.9841 55.9861Z" fill="#DECE93"/>
<path d="M12.016 55.9861C12.709 56.0612 13.3191 56.3316 13.7702 56.72C13.5392 56.1771 13.4695 55.5204 13.6177 54.8486C13.8138 53.9602 14.3433 53.2499 15.0015 52.8743C15.4417 53.4838 15.6247 54.3465 15.4286 55.2349C15.239 56.0977 14.7312 56.7887 14.1015 57.1707C13.5348 57.6385 12.7067 57.8918 11.8155 57.7952C10.8958 57.6965 10.1245 57.2522 9.67554 56.6492C10.2443 56.1534 11.0964 55.883 12.0138 55.9818L12.016 55.9861Z" fill="#DECE93"/>
<path d="M56.9114 59.6322C56.1421 59.673 55.4556 59.937 54.9349 60.3361C55.2225 59.7524 55.338 59.0335 55.2159 58.2866C55.0547 57.2952 54.5142 56.4818 53.8126 56.0311C53.2917 56.6749 53.0368 57.6149 53.2002 58.6064C53.3571 59.5679 53.8714 60.3597 54.5426 60.8169C55.1397 61.3641 56.0331 61.6924 57.0203 61.6409C58.038 61.5873 58.9162 61.143 59.4458 60.5056C58.8508 59.9283 57.929 59.5786 56.9114 59.6344V59.6322Z" fill="#DECE93"/>
<path d="M15.0886 59.6322C15.8579 59.673 16.5443 59.937 17.0629 60.3361C16.7753 59.7524 16.6598 59.0335 16.7818 58.2866C16.9431 57.2952 17.4836 56.4818 18.1852 56.0311C18.706 56.6749 18.961 57.6149 18.7976 58.6064C18.6407 59.5679 18.1263 60.3597 17.4552 60.8169C16.8581 61.3641 15.9646 61.6924 14.9774 61.6409C13.9598 61.5873 13.0816 61.143 12.552 60.5056C13.1469 59.9283 14.0688 59.5786 15.0864 59.6344L15.0886 59.6322Z" fill="#DECE93"/>
<path d="M53.2872 62.6109C52.518 62.5852 51.8098 62.7891 51.2563 63.1431C51.5941 62.5852 51.7727 61.8792 51.7161 61.1237C51.642 60.1237 51.1756 59.2674 50.5176 58.7566C49.9422 59.3533 49.6067 60.2675 49.6786 61.2697C49.7505 62.2418 50.1928 63.0723 50.8204 63.5874C51.3674 64.1839 52.2282 64.5875 53.2153 64.6196C54.233 64.6518 55.1482 64.287 55.7323 63.6968C55.1896 63.0702 54.3028 62.6453 53.2851 62.6109H53.2872Z" fill="#DECE93"/>
<path d="M18.7148 62.6109C19.484 62.5852 20.1922 62.7891 20.7457 63.1431C20.408 62.5852 20.2293 61.8792 20.286 61.1237C20.3601 60.1237 20.8264 59.2674 21.4846 58.7566C22.0598 59.3533 22.3954 60.2675 22.3235 61.2697C22.2516 62.2418 21.8092 63.0723 21.1816 63.5874C20.6347 64.1839 19.7738 64.5875 18.7867 64.6196C17.769 64.6518 16.8538 64.287 16.2698 63.6968C16.8124 63.0702 17.6993 62.6453 18.717 62.6109H18.7148Z" fill="#DECE93"/>
<path d="M48.7764 65.5317C48.0159 65.4115 47.2881 65.5252 46.6953 65.8086C47.1029 65.2978 47.3687 64.6196 47.4101 63.8621C47.4646 62.8599 47.1116 61.9521 46.5232 61.3662C45.876 61.8877 45.4249 62.7525 45.3704 63.7547C45.3181 64.7269 45.6515 65.6068 46.2072 66.1949C46.6736 66.8536 47.4755 67.3601 48.4518 67.5147C49.4585 67.6734 50.4108 67.4224 51.0646 66.9095C50.6069 66.2205 49.7811 65.6884 48.7742 65.5296L48.7764 65.5317Z" fill="#DECE93"/>
<path d="M23.2235 65.5317C23.984 65.4115 24.7118 65.5252 25.3045 65.8086C24.897 65.2978 24.6312 64.6196 24.5898 63.8621C24.5353 62.8599 24.8884 61.9521 25.4767 61.3662C26.1239 61.8877 26.575 62.7525 26.6295 63.7547C26.6818 64.7269 26.3484 65.6068 25.7927 66.1949C25.3263 66.8536 24.5244 67.3601 23.5482 67.5147C22.5414 67.6734 21.5891 67.4224 20.9353 66.9095C21.393 66.2205 22.2189 65.6884 23.2256 65.5296L23.2235 65.5317Z" fill="#DECE93"/>
<path d="M68.3106 20.4861C68.655 19.9497 68.7857 19.2823 68.6179 18.617C68.4501 17.9517 68.0187 17.4217 67.4586 17.1061C67.1143 17.6427 66.9836 18.3101 67.1513 18.9754C67.3191 19.6406 67.7507 20.1707 68.3106 20.4861Z" fill="#DECE93"/>
<path d="M3.68934 20.4861C3.34502 19.9497 3.21427 19.2823 3.38207 18.617C3.54986 17.9517 3.98134 17.4217 4.54139 17.1061C4.8857 17.6427 5.01645 18.3101 4.84865 18.9754C4.68086 19.6406 4.24938 20.1707 3.68934 20.4861Z" fill="#DECE93"/>
<path d="M61.6577 24.7353C58.9097 13.3227 60.3109 8.4919 60.3109 8.4919C60.3109 8.4919 43.8712 5.09471 36.0545 -0.00215149C36.0371 0.00857875 36.0196 0.0171629 36 0.0278932C35.9826 0.0171629 35.9652 0.00857875 35.9456 -0.00215149C28.131 5.09686 11.6913 8.49405 11.6913 8.49405C11.6913 8.49405 13.0925 13.3248 10.3445 24.7375C8.79299 31.1757 8.72761 49.7733 36.0022 61.2503C63.2768 49.7733 63.2092 31.1757 61.6598 24.7375L61.6577 24.7353ZM29.1705 33.1328C28.5407 35.4806 25.8559 37.2468 22.6329 37.2468C19.41 37.2468 16.6729 35.4506 16.0758 33.0706H16.1106L16.078 33.0598L20.5017 18.9496H21.4039L16.9758 33.0685H28.2901L23.862 18.9496H24.7641L29.2075 33.122L29.1705 33.1328ZM42.1801 49.8441H29.8176V46.6937H34.4179V17.6405H18.8957V16.1533H34.4201V14.1016H37.5821V16.1533H53.1066V17.6405H37.5821V46.6937H42.1823V49.8441H42.1801ZM49.3671 37.2468C46.1441 37.2468 43.4593 35.4806 42.8296 33.1328L42.7925 33.122L47.2359 18.9496H48.138L43.71 33.0685H55.0242L50.5961 18.9496H51.4983L55.9221 33.0598L55.8894 33.0706H55.9242C55.3249 35.4506 52.6184 37.2468 49.3671 37.2468Z" fill="#DECE93"/>
<path d="M45.3814 67.8151C44.6209 67.6949 43.893 67.8086 43.3003 68.0919C43.7078 67.5812 43.9737 66.903 44.0151 66.1455C44.0695 65.1433 43.7165 64.2355 43.1281 63.6496C42.4809 64.1711 42.0298 65.0359 41.9753 66.0381C41.9339 66.8065 42.2172 67.6027 42.5768 68.1563C42.1453 68.4632 41.1494 68.9868 39.8572 69.2851C40.0359 69.4825 40.1296 69.768 40.1753 69.9719C41.0906 69.7315 42.0995 69.3302 42.9494 68.652C43.4267 69.225 44.1698 69.6585 45.0567 69.8002C46.0635 69.959 47.0158 69.7079 47.6695 69.195C47.2119 68.5061 46.386 67.9739 45.3792 67.8151H45.3814Z" fill="#DECE93"/>
<path d="M32.0906 69.2723C30.8245 68.9718 29.8504 68.4589 29.4255 68.1563C29.785 67.6027 30.0683 66.8065 30.0269 66.0381C29.9725 65.0359 29.5236 64.1711 28.8741 63.6496C28.2858 64.2355 27.9327 65.1433 27.9873 66.1455C28.0287 66.9009 28.2945 67.579 28.702 68.0919C28.1093 67.8086 27.3792 67.6949 26.6209 67.8151C25.6141 67.9739 24.7882 68.5061 24.3306 69.195C24.9843 69.7079 25.9388 69.959 26.9434 69.8002C27.8325 69.6607 28.5734 69.2272 29.0507 68.652C29.894 69.3237 30.8943 69.725 31.8052 69.9654C31.8466 69.7744 31.9294 69.4955 32.0885 69.2723H32.0906Z" fill="#DECE93"/>
<path d="M39.7002 70.1071C39.6392 69.7637 39.5041 69.5856 39.3145 69.3795C39.151 69.2208 38.944 69.092 38.6803 69.0254C38.0287 68.8559 37.4317 69.0791 37.0002 69.3431C37.0895 69.0104 37.1419 68.6499 37.1244 68.2829C37.0591 66.873 36.2854 65.9416 36 65.7978C35.7166 65.9416 34.9408 66.873 34.8755 68.2829C34.858 68.652 34.9103 69.0104 34.9997 69.3431C34.5682 69.0791 33.9712 68.8559 33.3196 69.0254C33.0516 69.0942 32.8401 69.2272 32.6745 69.3881C32.5154 69.5319 32.3803 69.7723 32.2975 70.122C32.2126 70.65 32.4457 71.193 32.997 71.3432C34.0431 71.6308 32.8336 71.0385 33.799 70.5234C34.4419 70.18 35.1653 70.3624 35.1196 71.296C35.0912 71.899 34.7905 72.633 34.0649 72.3711C33.7401 72.2531 34.1738 73.1223 34.7709 73.1459C34.9779 73.1544 35.5532 73.075 35.6295 72.6609C35.6295 73.1845 35.8191 73.8519 35.9956 73.9957C36.1721 73.8519 36.3617 73.1845 36.3617 72.6609C36.4401 73.075 37.0133 73.1544 37.2203 73.1459C37.8174 73.1201 38.2532 72.2531 37.9263 72.3711C37.2006 72.6308 36.9 71.899 36.8716 71.296C36.828 70.3624 37.5493 70.1779 38.1922 70.5234C39.1554 71.0385 37.9481 71.6308 38.9942 71.3432C39.552 71.1909 39.7852 70.6392 39.6915 70.1049L39.7002 70.1071Z" fill="#DECE93"/>
</g>
</g>
<defs>
<clipPath id="clip0_101_53">
<rect width="72" height="74" fill="white"/>
</clipPath>
</defs>
</svg>
