<svg width="24" height="24" viewBox="0 0 24 24" fill="none" xmlns="http://www.w3.org/2000/svg">
<g clip-path="url(#clip0_101_179)">
<path d="M11.5971 12.2527C10.5363 12.2527 9.66838 11.4039 9.66838 10.3664C9.66838 9.32896 10.5363 8.48013 11.5971 8.48013C12.658 8.48013 13.5259 9.32896 13.5259 10.3664C13.5259 11.4039 12.658 12.2527 11.5971 12.2527ZM17.3834 10.555C17.3834 7.13144 14.8278 4.70757 11.5971 4.70757C8.36646 4.70757 5.81085 7.13144 5.81085 10.555C5.81085 12.762 7.69139 15.6857 11.5971 19.1754C15.5029 15.6857 17.3834 12.762 17.3834 10.555ZM11.5971 2.82129C15.6476 2.82129 19.3122 5.8582 19.3122 10.555C19.3122 13.6863 16.7373 17.3928 11.5971 21.6841C6.45698 17.3928 3.88208 13.6863 3.88208 10.555C3.88208 5.8582 7.54674 2.82129 11.5971 2.82129Z" fill="#C4A061"/>
</g>
<defs>
<clipPath id="clip0_101_179">
<rect width="23.1452" height="22.6354" fill="white" transform="translate(0.0246582 0.935059)"/>
</clipPath>
</defs>
</svg>
