<svg width="28" height="29" viewBox="0 0 28 29" fill="none" xmlns="http://www.w3.org/2000/svg">
<g clip-path="url(#clip0_101_97)">
<path d="M26.8334 14.832L23.9867 11.6025L24.3834 7.33114L20.1717 6.38196L17.9667 2.68939L14.0001 4.37941L10.0334 2.68939L7.82841 6.38196L3.61675 7.31957L4.01341 11.6025L1.16675 14.832L4.01341 18.0616L3.61675 22.3445L7.82841 23.2937L10.0334 26.9978L14.0001 25.2962L17.9667 26.9862L20.1717 23.2937L24.3834 22.3445L23.9867 18.0732L26.8334 14.832ZM22.2251 16.5452L21.5717 17.2976L21.6651 18.2815L21.8751 20.5387L19.6584 21.0365L18.6784 21.2564L18.1651 22.113L17.0101 24.0577L14.9334 23.1664L14.0001 22.7728L13.0784 23.1664L11.0017 24.0577L9.84675 22.1246L9.33341 21.268L8.35341 21.048L6.13675 20.5503L6.34675 18.2815L6.44008 17.2976L5.78675 16.5452L4.28175 14.8436L5.78675 13.1304L6.44008 12.378L6.33508 11.3825L6.12508 9.13691L8.34175 8.63917L9.32175 8.41924L9.83508 7.56265L10.9901 5.61798L13.0667 6.50929L14.0001 6.90285L14.9217 6.50929L16.9984 5.61798L18.1534 7.56265L18.6667 8.41924L19.6467 8.63917L21.8634 9.13691L21.6534 11.3941L21.5601 12.378L22.2134 13.1304L23.7184 14.832L22.2251 16.5452Z" fill="#DECE93"/>
<path d="M11.7717 16.8693L9.06505 14.1722L7.33838 15.897L11.7717 20.3072L20.335 11.7877L18.6084 10.063L11.7717 16.8693Z" fill="#DECE93"/>
</g>
<defs>
<clipPath id="clip0_101_97">
<rect width="28" height="27.7811" fill="white" transform="translate(0 0.953064)"/>
</clipPath>
</defs>
</svg>
