<svg width="43" height="26" viewBox="0 0 43 26" fill="none" xmlns="http://www.w3.org/2000/svg">
<g clip-path="url(#clip0_101_192)">
<mask id="mask0_101_192" style="mask-type:luminance" maskUnits="userSpaceOnUse" x="0" y="0" width="43" height="26">
<path d="M42.3781 0.859131H0.295898V25.5523H42.3781V0.859131Z" fill="white"/>
</mask>
<g mask="url(#mask0_101_192)">
<path d="M15.6482 3.50049H27.0268V22.912H15.6482V3.50049Z" fill="#FF5F00"/>
<path d="M16.3702 13.2057C16.3702 9.26165 18.3208 5.76346 21.319 3.49993C19.1155 1.85372 16.334 0.859131 13.2998 0.859131C6.11155 0.859131 0.295898 6.38079 0.295898 13.2057C0.295898 20.0306 6.11155 25.5523 13.2998 25.5523C16.334 25.5523 19.1155 24.5577 21.319 22.9114C18.3208 20.6479 16.3702 17.1498 16.3702 13.2057Z" fill="#EB001B"/>
<path d="M42.3785 13.2057C42.3785 20.0306 36.5629 25.5523 29.3745 25.5523C26.3403 25.5523 23.5589 24.5577 21.3554 22.9114C24.3536 20.6479 26.3041 17.1498 26.3041 13.2057C26.3041 9.26165 24.3536 5.76346 21.3193 3.49993C23.5589 1.85372 26.3403 0.859131 29.3745 0.859131C36.5629 0.859131 42.3785 6.38079 42.3785 13.2057Z" fill="#F79E1B"/>
</g>
</g>
<defs>
<clipPath id="clip0_101_192">
<rect width="42.0822" height="24.6931" fill="white" transform="translate(0.295898 0.859131)"/>
</clipPath>
</defs>
</svg>
