<svg width="42" height="26" viewBox="0 0 42 26" fill="none" xmlns="http://www.w3.org/2000/svg">
<g clip-path="url(#clip0_101_200)">
<mask id="mask0_101_200" style="mask-type:luminance" maskUnits="userSpaceOnUse" x="0" y="0" width="42" height="26">
<path d="M41.2411 0.859131H0.210938V25.5523H41.2411V0.859131Z" fill="white"/>
</mask>
<g mask="url(#mask0_101_200)">
<path d="M15.1792 3.50049H26.2733V22.912H15.1792V3.50049Z" fill="#7673C0"/>
<path d="M15.8834 13.2057C15.8834 9.26165 17.7852 5.76346 20.7084 3.49993C18.5601 1.85372 15.8481 0.859131 12.8898 0.859131C5.8812 0.859131 0.210938 6.38079 0.210938 13.2057C0.210938 20.0306 5.8812 25.5523 12.8898 25.5523C15.8481 25.5523 18.5601 24.5577 20.7084 22.9114C17.7852 20.6479 15.8834 17.1498 15.8834 13.2057Z" fill="#EB001B"/>
<path d="M41.2414 13.2057C41.2414 20.0306 35.5712 25.5523 28.5625 25.5523C25.6042 25.5523 22.8923 24.5577 20.7439 22.9114C23.6672 20.6479 25.5689 17.1498 25.5689 13.2057C25.5689 9.26165 23.6672 5.76346 20.7087 3.49993C22.8923 1.85372 25.6042 0.859131 28.5625 0.859131C35.5712 0.859131 41.2414 6.38079 41.2414 13.2057Z" fill="#00A1DF"/>
</g>
</g>
<defs>
<clipPath id="clip0_101_200">
<rect width="41.0301" height="24.6931" fill="white" transform="translate(0.210938 0.859131)"/>
</clipPath>
</defs>
</svg>
