<svg width="78" height="26" viewBox="0 0 78 26" fill="none" xmlns="http://www.w3.org/2000/svg">
<mask id="mask0_101_187" style="mask-type:luminance" maskUnits="userSpaceOnUse" x="0" y="0" width="78" height="26">
<path d="M77.3068 0.859131H0.506836V25.5523H77.3068V0.859131Z" fill="white"/>
</mask>
<g mask="url(#mask0_101_187)">
<path d="M38.5212 1.31056L33.3953 25.1912H27.1805L32.3518 1.31056H38.5212ZM64.6505 16.7043L67.9167 7.72085L69.7766 16.7043H64.6505ZM71.5911 25.1912H77.3522L72.3169 1.31056H67.0094C65.83 1.31056 64.832 1.9877 64.3783 3.07113L55.0788 25.1912H61.6111L62.8813 21.6249H70.8199L71.5911 25.1912ZM55.3964 17.3815C55.4417 11.0614 46.6413 10.7454 46.6867 7.90141C46.6867 7.0437 47.5031 6.14085 49.3177 5.91514C50.2249 5.7797 52.6746 5.68941 55.4417 6.99856L56.5305 1.94256C55.0335 1.3557 53.1283 0.859131 50.724 0.859131C44.5999 0.859131 40.2904 4.10942 40.2451 8.75913C40.1997 12.19 43.3298 14.1311 45.6887 15.2597C48.0929 16.4334 48.9094 17.2009 48.9094 18.2392C48.9094 19.8643 46.9589 20.5415 45.1897 20.5866C42.0596 20.6317 40.2451 19.7289 38.7934 19.0969L37.6594 24.3334C39.1109 25.0106 41.7874 25.5523 44.5546 25.5974C51.0869 25.5523 55.351 22.3471 55.3964 17.3815ZM29.6755 1.31056L19.6048 25.1912H13.0725L8.08251 6.0957C7.76495 4.922 7.53814 4.51571 6.63088 4.01913C5.13389 3.20656 2.68428 2.43913 0.506836 1.9877L0.642926 1.31056H11.2126C12.5735 1.31056 13.7529 2.21342 14.0705 3.74827L16.7016 17.562L23.143 1.31056H29.6755Z" fill="white"/>
</g>
</svg>
