<svg width="89" height="26" viewBox="0 0 89 26" fill="none" xmlns="http://www.w3.org/2000/svg">
<g clip-path="url(#clip0_101_208)">
<mask id="mask0_101_208" style="mask-type:luminance" maskUnits="userSpaceOnUse" x="0" y="0" width="89" height="26">
<path d="M88.6026 0.859131H0.22998V25.5523H88.6026V0.859131Z" fill="white"/>
</mask>
<g mask="url(#mask0_101_208)">
<path d="M49.4484 3.47761L43.8646 15.4761H43.2962V0.859131H35.3383V25.5523H42.0591C43.8311 25.5523 45.4362 24.5248 46.1717 22.9338L51.7556 10.9353H52.324V25.5523H60.2485V0.859131H53.5278C51.789 0.859131 50.1841 1.88663 49.4484 3.47761ZM19.69 4.10736L16.3798 15.4761H15.8113L12.5012 4.10736C11.9328 2.18494 10.1606 0.859131 8.15442 0.859131H0.22998V25.5523H8.15442V10.9684H8.72285L13.2702 25.5523H18.9209L23.4684 10.9353H24.0367V25.5523H31.9611V0.859131H24.0367C22.0305 0.859131 20.225 2.18494 19.69 4.10736ZM63.6924 12.0953V25.5855H71.6168V17.6968H80.1431C83.8546 17.6968 86.9642 15.3436 88.1345 12.0953H63.6924Z" fill="#319B42"/>
<path d="M80.1098 0.859131H62.5557C63.6257 6.59325 68.7081 10.9684 74.7935 10.9684H88.4356C88.5358 10.4381 88.6027 9.87461 88.6027 9.278C88.6027 4.63767 84.7909 0.859131 80.1098 0.859131Z" fill="url(#paint0_linear_101_208)"/>
</g>
</g>
<defs>
<linearGradient id="paint0_linear_101_208" x1="62.5446" y1="5.9131" x2="88.6038" y2="5.9131" gradientUnits="userSpaceOnUse">
<stop stop-color="#00A3E1"/>
<stop offset="0.304" stop-color="#009ADD"/>
<stop offset="0.799" stop-color="#0082D4"/>
<stop offset="1" stop-color="#0076CF"/>
</linearGradient>
<clipPath id="clip0_101_208">
<rect width="88.3726" height="24.6931" fill="white" transform="translate(0.22998 0.859131)"/>
</clipPath>
</defs>
</svg>
